ply
format ascii 1.0
comment Created by Blender 2.74 (sub 0) - www.blender.org, source file: 'eyedropper2.2.blend'
element vertex 480
property float x
property float y
property float z
property float nx
property float ny
property float nz
element face 144
property list uchar uint vertex_indices
end_header
-0.237664 0.309729 7.040949 -0.555570 0.831470 0.000081
-0.195202 0.338101 7.040949 -0.555570 0.831470 0.000081
-0.195489 0.338597 -0.017786 -0.555570 0.831470 0.000081
-0.238012 0.310183 -0.017786 -0.555570 0.831470 0.000081
-0.338101 -0.195202 7.040949 -0.896873 -0.442288 0.000081
-0.360687 -0.149401 7.040949 -0.896873 -0.442288 0.000081
-0.361216 -0.149621 -0.017786 -0.896873 -0.442288 0.000081
-0.338597 -0.195489 -0.017786 -0.896873 -0.442288 0.000081
-0.237664 -0.309729 7.040949 -0.659346 -0.751839 0.000081
-0.276058 -0.276058 7.040949 -0.659346 -0.751839 0.000081
-0.276463 -0.276463 -0.017786 -0.659346 -0.751839 0.000081
-0.238012 -0.310183 -0.017786 -0.659346 -0.751839 0.000081
0.338101 0.195203 7.040949 0.896873 0.442289 0.000081
0.360687 0.149402 7.040949 0.896873 0.442289 0.000081
0.361216 0.149621 -0.017786 0.896873 0.442289 0.000081
0.338597 0.195489 -0.017786 0.896873 0.442289 0.000081
0.237664 0.309729 7.040949 0.659346 0.751840 0.000081
0.276058 0.276058 7.040949 0.659346 0.751840 0.000081
0.276463 0.276463 -0.017786 0.659346 0.751840 0.000081
0.238012 0.310183 -0.017786 0.659346 0.751840 0.000081
-0.377102 0.101044 7.040949 -0.946930 0.321440 0.000081
-0.360687 0.149402 7.040949 -0.946930 0.321440 0.000081
-0.361216 0.149621 -0.017786 -0.946930 0.321440 0.000081
-0.377655 0.101192 -0.017786 -0.946930 0.321440 0.000081
-0.195202 0.338101 7.040949 -0.442288 0.896873 0.000081
-0.149402 0.360687 7.040949 -0.442288 0.896873 0.000081
-0.149621 0.361216 -0.017786 -0.442288 0.896873 0.000081
-0.195489 0.338597 -0.017786 -0.442288 0.896873 0.000081
0.000000 0.390405 7.040949 0.065402 0.997859 0.000081
0.050958 0.387065 7.040949 0.065402 0.997859 0.000081
0.051033 0.387633 -0.017786 0.065402 0.997859 0.000081
0.000000 0.390978 -0.017786 0.065402 0.997859 0.000081
0.377102 0.101044 7.040949 0.980785 0.195090 0.000081
0.387065 0.050958 7.040949 0.980785 0.195090 0.000081
0.387633 0.051033 -0.017786 0.980785 0.195090 0.000081
0.377656 0.101192 -0.017786 0.980785 0.195090 0.000081
-0.276058 0.276058 7.040949 -0.659346 0.751839 0.000081
-0.237664 0.309729 7.040949 -0.659346 0.751839 0.000081
-0.238012 0.310183 -0.017786 -0.659346 0.751839 0.000081
-0.276463 0.276463 -0.017786 -0.659346 0.751839 0.000081
-0.101044 -0.377102 7.040949 -0.321439 -0.946930 0.000081
-0.149402 -0.360687 7.040949 -0.321439 -0.946930 0.000081
-0.149621 -0.361216 -0.017786 -0.321439 -0.946930 0.000081
-0.101193 -0.377655 -0.017786 -0.321439 -0.946930 0.000081
-0.149402 0.360687 7.040949 -0.321439 0.946930 0.000081
-0.101044 0.377102 7.040949 -0.321439 0.946930 0.000081
-0.101192 0.377655 -0.017786 -0.321439 0.946930 0.000081
-0.149621 0.361216 -0.017786 -0.321439 0.946930 0.000081
-0.338101 0.195203 7.040949 -0.831469 0.555570 0.000081
-0.309729 0.237664 7.040949 -0.831469 0.555570 0.000081
-0.310183 0.238012 -0.017786 -0.831469 0.555570 0.000081
-0.338597 0.195489 -0.017786 -0.831469 0.555570 0.000081
0.101044 -0.377102 7.040949 0.195091 -0.980785 0.000081
0.050958 -0.387065 7.040949 0.195091 -0.980785 0.000081
0.051033 -0.387633 -0.017786 0.195091 -0.980785 0.000081
0.101192 -0.377656 -0.017786 0.195091 -0.980785 0.000081
0.309729 -0.237664 7.040949 0.751839 -0.659346 0.000081
0.276058 -0.276058 7.040949 0.751839 -0.659346 0.000081
0.276463 -0.276463 -0.017786 0.751839 -0.659346 0.000081
0.310184 -0.238012 -0.017786 0.751839 -0.659346 0.000081
0.149402 0.360687 7.040949 0.442289 0.896873 0.000081
0.195203 0.338101 7.040949 0.442289 0.896873 0.000081
0.195489 0.338597 -0.017786 0.442289 0.896873 0.000081
0.149621 0.361216 -0.017786 0.442289 0.896873 0.000081
0.387065 -0.050958 7.040949 0.980785 -0.195090 0.000081
0.377102 -0.101044 7.040949 0.980785 -0.195090 0.000081
0.377656 -0.101192 -0.017786 0.980785 -0.195090 0.000081
0.387633 -0.051033 -0.017786 0.980785 -0.195090 0.000081
0.309729 0.237664 7.040949 0.831470 0.555570 0.000081
0.338101 0.195203 7.040949 0.831470 0.555570 0.000081
0.338597 0.195489 -0.017786 0.831470 0.555570 0.000081
0.310184 0.238012 -0.017786 0.831470 0.555570 0.000081
-0.050958 -0.387065 7.040949 -0.195091 -0.980785 0.000081
-0.101044 -0.377102 7.040949 -0.195091 -0.980785 0.000081
-0.101193 -0.377655 -0.017786 -0.195091 -0.980785 0.000081
-0.051033 -0.387633 -0.017786 -0.195091 -0.980785 0.000081
-0.377102 -0.101044 7.040949 -0.980785 -0.195091 0.000081
-0.387065 -0.050958 7.040949 -0.980785 -0.195091 0.000081
-0.387633 -0.051033 -0.017786 -0.980785 -0.195091 0.000081
-0.377655 -0.101192 -0.017786 -0.980785 -0.195091 0.000081
-0.309729 -0.237664 7.040949 -0.831469 -0.555570 0.000081
-0.338101 -0.195202 7.040949 -0.831469 -0.555570 0.000081
-0.338597 -0.195489 -0.017786 -0.831469 -0.555570 0.000081
-0.310183 -0.238012 -0.017786 -0.831469 -0.555570 0.000081
0.000000 -0.390405 7.040949 -0.065404 -0.997859 0.000081
-0.050958 -0.387065 7.040949 -0.065404 -0.997859 0.000081
-0.051033 -0.387633 -0.017786 -0.065404 -0.997859 0.000081
0.000000 -0.390978 -0.017786 -0.065404 -0.997859 0.000081
0.149402 -0.360687 7.040949 0.321439 -0.946930 0.000081
0.101044 -0.377102 7.040949 0.321439 -0.946930 0.000081
0.101192 -0.377656 -0.017786 0.321439 -0.946930 0.000081
0.149621 -0.361216 -0.017786 0.321439 -0.946930 0.000081
-0.195202 -0.338101 7.040949 -0.555570 -0.831469 0.000081
-0.237664 -0.309729 7.040949 -0.555570 -0.831469 0.000081
-0.238012 -0.310183 -0.017786 -0.555570 -0.831469 0.000081
-0.195489 -0.338597 -0.017786 -0.555570 -0.831469 0.000081
-0.360687 0.149402 7.040949 -0.896873 0.442289 0.000081
-0.338101 0.195203 7.040949 -0.896873 0.442289 0.000081
-0.338597 0.195489 -0.017786 -0.896873 0.442289 0.000081
-0.361216 0.149621 -0.017786 -0.896873 0.442289 0.000081
0.360687 0.149402 7.040949 0.946930 0.321439 0.000081
0.377102 0.101044 7.040949 0.946930 0.321439 0.000081
0.377656 0.101192 -0.017786 0.946930 0.321439 0.000081
0.361216 0.149621 -0.017786 0.946930 0.321439 0.000081
0.050958 0.387065 7.040949 0.195091 0.980785 0.000081
0.101044 0.377102 7.040949 0.195091 0.980785 0.000081
0.101192 0.377655 -0.017786 0.195091 0.980785 0.000081
0.051033 0.387633 -0.017786 0.195091 0.980785 0.000081
0.387065 0.050958 7.040949 0.997859 0.065402 0.000081
0.390405 0.000000 7.040949 0.997859 0.065402 0.000081
0.390978 0.000000 -0.017786 0.997859 0.065402 0.000081
0.387633 0.051033 -0.017786 0.997859 0.065402 0.000081
-0.360687 -0.149401 7.040949 -0.946930 -0.321439 0.000081
-0.377102 -0.101044 7.040949 -0.946930 -0.321439 0.000081
-0.377655 -0.101192 -0.017786 -0.946930 -0.321439 0.000081
-0.361216 -0.149621 -0.017786 -0.946930 -0.321439 0.000081
0.101044 0.377102 7.040949 0.321440 0.946930 0.000081
0.149402 0.360687 7.040949 0.321440 0.946930 0.000081
0.149621 0.361216 -0.017786 0.321440 0.946930 0.000081
0.101192 0.377655 -0.017786 0.321440 0.946930 0.000081
-0.390405 0.000000 7.040949 -0.997859 0.065402 0.000081
-0.387065 0.050958 7.040949 -0.997859 0.065402 0.000081
-0.387633 0.051033 -0.017786 -0.997859 0.065402 0.000081
-0.390978 0.000000 -0.017786 -0.997859 0.065402 0.000081
-0.149402 -0.360687 7.040949 -0.442288 -0.896873 0.000081
-0.195202 -0.338101 7.040949 -0.442288 -0.896873 0.000081
-0.195489 -0.338597 -0.017786 -0.442288 -0.896873 0.000081
-0.149621 -0.361216 -0.017786 -0.442288 -0.896873 0.000081
-0.050958 0.387065 7.040949 -0.065403 0.997859 0.000081
0.000000 0.390405 7.040949 -0.065403 0.997859 0.000081
0.000000 0.390978 -0.017786 -0.065403 0.997859 0.000081
-0.051033 0.387633 -0.017786 -0.065403 0.997859 0.000081
0.360687 -0.149402 7.040949 0.896872 -0.442290 0.000081
0.338101 -0.195203 7.040949 0.896872 -0.442290 0.000081
0.338597 -0.195489 -0.017786 0.896872 -0.442290 0.000081
0.361216 -0.149621 -0.017786 0.896872 -0.442290 0.000081
0.387065 -0.050958 7.040949 0.997859 -0.065402 0.000081
0.387633 -0.051033 -0.017786 0.997859 -0.065402 0.000081
0.390978 0.000000 -0.017786 0.997859 -0.065402 0.000081
0.390405 0.000000 7.040949 0.997859 -0.065402 0.000081
0.050958 -0.387065 7.040949 0.065402 -0.997859 0.000081
0.000000 -0.390405 7.040949 0.065402 -0.997859 0.000081
0.000000 -0.390978 -0.017786 0.065402 -0.997859 0.000081
0.051033 -0.387633 -0.017786 0.065402 -0.997859 0.000081
0.195203 -0.338101 7.040949 0.442289 -0.896873 0.000081
0.149402 -0.360687 7.040949 0.442289 -0.896873 0.000081
0.149621 -0.361216 -0.017786 0.442289 -0.896873 0.000081
0.195489 -0.338597 -0.017786 0.442289 -0.896873 0.000081
0.195203 0.338101 7.040949 0.555570 0.831470 0.000081
0.237664 0.309729 7.040949 0.555570 0.831470 0.000081
0.238012 0.310183 -0.017786 0.555570 0.831470 0.000081
0.195489 0.338597 -0.017786 0.555570 0.831470 0.000081
-0.276058 -0.276058 7.040949 -0.751840 -0.659346 0.000081
-0.309729 -0.237664 7.040949 -0.751840 -0.659346 0.000081
-0.310183 -0.238012 -0.017786 -0.751840 -0.659346 0.000081
-0.276463 -0.276463 -0.017786 -0.751840 -0.659346 0.000081
-0.387065 -0.050958 7.040949 -0.997859 -0.065402 0.000081
-0.390405 0.000000 7.040949 -0.997859 -0.065402 0.000081
-0.390978 0.000000 -0.017786 -0.997859 -0.065402 0.000081
-0.387633 -0.051033 -0.017786 -0.997859 -0.065402 0.000081
-0.309729 0.237664 7.040949 -0.751840 0.659346 0.000081
-0.276058 0.276058 7.040949 -0.751840 0.659346 0.000081
-0.276463 0.276463 -0.017786 -0.751840 0.659346 0.000081
-0.310183 0.238012 -0.017786 -0.751840 0.659346 0.000081
0.377102 -0.101044 7.040949 0.946930 -0.321440 0.000081
0.360687 -0.149402 7.040949 0.946930 -0.321440 0.000081
0.361216 -0.149621 -0.017786 0.946930 -0.321440 0.000081
0.377656 -0.101192 -0.017786 0.946930 -0.321440 0.000081
0.237663 -0.309729 7.040949 0.555569 -0.831470 0.000081
0.195203 -0.338101 7.040949 0.555569 -0.831470 0.000081
0.195489 -0.338597 -0.017786 0.555569 -0.831470 0.000081
0.238012 -0.310184 -0.017786 0.555569 -0.831470 0.000081
-0.387065 0.050958 7.040949 -0.980785 0.195091 0.000081
-0.377102 0.101044 7.040949 -0.980785 0.195091 0.000081
-0.377655 0.101192 -0.017786 -0.980785 0.195091 0.000081
-0.387633 0.051033 -0.017786 -0.980785 0.195091 0.000081
0.276058 0.276058 7.040949 0.751839 0.659346 0.000081
0.309729 0.237664 7.040949 0.751839 0.659346 0.000081
0.310184 0.238012 -0.017786 0.751839 0.659346 0.000081
0.276463 0.276463 -0.017786 0.751839 0.659346 0.000081
0.276058 -0.276058 7.040949 0.659346 -0.751840 0.000081
0.237663 -0.309729 7.040949 0.659346 -0.751840 0.000081
0.238012 -0.310184 -0.017786 0.659346 -0.751840 0.000081
0.276463 -0.276463 -0.017786 0.659346 -0.751840 0.000081
-0.101044 0.377102 7.040949 -0.195091 0.980785 0.000081
-0.050958 0.387065 7.040949 -0.195091 0.980785 0.000081
-0.051033 0.387633 -0.017786 -0.195091 0.980785 0.000081
-0.101192 0.377655 -0.017786 -0.195091 0.980785 0.000081
0.338101 -0.195203 7.040949 0.831470 -0.555570 0.000081
0.309729 -0.237664 7.040949 0.831470 -0.555570 0.000081
0.310184 -0.238012 -0.017786 0.831470 -0.555570 0.000081
0.338597 -0.195489 -0.017786 0.831470 -0.555570 0.000081
-0.000000 0.000000 7.040995 0.000038 0.000111 1.000000
0.149402 0.360687 7.040949 0.000038 0.000111 1.000000
0.101044 0.377102 7.040949 0.000038 0.000111 1.000000
-0.000000 0.000000 7.040995 0.000023 -0.000115 1.000000
0.050958 -0.387065 7.040949 0.000023 -0.000115 1.000000
0.101044 -0.377102 7.040949 0.000023 -0.000115 1.000000
-0.000000 0.000000 7.040995 -0.000117 -0.000008 1.000000
-0.390405 0.000000 7.040949 -0.000117 -0.000008 1.000000
-0.387065 -0.050958 7.040949 -0.000117 -0.000008 1.000000
-0.000000 0.000000 7.040995 -0.000052 0.000105 1.000000
-0.149402 0.360687 7.040949 -0.000052 0.000105 1.000000
-0.195202 0.338101 7.040949 -0.000052 0.000105 1.000000
-0.000000 0.000000 7.040995 0.000088 -0.000077 1.000000
0.276058 -0.276058 7.040949 0.000088 -0.000077 1.000000
0.309729 -0.237664 7.040949 0.000088 -0.000077 1.000000
-0.000000 0.000000 7.040995 -0.000038 0.000111 1.000000
-0.101044 0.377102 7.040949 -0.000038 0.000111 1.000000
-0.149402 0.360687 7.040949 -0.000038 0.000111 1.000000
-0.000000 0.000000 7.040995 0.000088 0.000077 1.000000
0.309729 0.237664 7.040949 0.000088 0.000077 1.000000
0.276058 0.276058 7.040949 0.000088 0.000077 1.000000
-0.000000 0.000000 7.040995 0.000105 -0.000052 1.000000
0.338101 -0.195203 7.040949 0.000105 -0.000052 1.000000
0.360687 -0.149402 7.040949 0.000105 -0.000052 1.000000
-0.000000 0.000000 7.040995 -0.000098 0.000065 1.000000
-0.309729 0.237664 7.040949 -0.000098 0.000065 1.000000
-0.338101 0.195203 7.040949 -0.000098 0.000065 1.000000
-0.000000 0.000000 7.040995 -0.000111 0.000038 1.000000
-0.360687 0.149402 7.040949 -0.000111 0.000038 1.000000
-0.377102 0.101044 7.040949 -0.000111 0.000038 1.000000
-0.000000 0.000000 7.040995 -0.000088 0.000077 1.000000
-0.276058 0.276058 7.040949 -0.000088 0.000077 1.000000
-0.309729 0.237664 7.040949 -0.000088 0.000077 1.000000
-0.000000 0.000000 7.040995 -0.000088 -0.000077 1.000000
-0.309729 -0.237664 7.040949 -0.000088 -0.000077 1.000000
-0.276058 -0.276058 7.040949 -0.000088 -0.000077 1.000000
-0.000000 0.000000 7.040995 0.000117 0.000008 1.000000
0.390405 0.000000 7.040949 0.000117 0.000008 1.000000
0.387065 0.050958 7.040949 0.000117 0.000008 1.000000
-0.000000 0.000000 7.040995 -0.000008 0.000117 1.000000
0.000000 0.390405 7.040949 -0.000008 0.000117 1.000000
-0.050958 0.387065 7.040949 -0.000008 0.000117 1.000000
-0.000000 0.000000 7.040995 -0.000115 -0.000023 1.000000
-0.387065 -0.050958 7.040949 -0.000115 -0.000023 1.000000
-0.377102 -0.101044 7.040949 -0.000115 -0.000023 1.000000
-0.000000 0.000000 7.040995 0.000077 0.000088 1.000000
0.276058 0.276058 7.040949 0.000077 0.000088 1.000000
0.237664 0.309729 7.040949 0.000077 0.000088 1.000000
-0.000000 0.000000 7.040995 0.000052 -0.000105 1.000000
0.149402 -0.360687 7.040949 0.000052 -0.000105 1.000000
0.195203 -0.338101 7.040949 0.000052 -0.000105 1.000000
-0.000000 0.000000 7.040995 0.000077 -0.000088 1.000000
0.237663 -0.309729 7.040949 0.000077 -0.000088 1.000000
0.276058 -0.276058 7.040949 0.000077 -0.000088 1.000000
-0.000000 0.000000 7.040995 -0.000023 0.000115 1.000000
-0.050958 0.387065 7.040949 -0.000023 0.000115 1.000000
-0.101044 0.377102 7.040949 -0.000023 0.000115 1.000000
-0.000000 0.000000 7.040995 0.000065 -0.000098 1.000000
0.195203 -0.338101 7.040949 0.000065 -0.000098 1.000000
0.237663 -0.309729 7.040949 0.000065 -0.000098 1.000000
-0.000000 0.000000 7.040995 0.000115 -0.000023 1.000000
0.377102 -0.101044 7.040949 0.000115 -0.000023 1.000000
0.387065 -0.050958 7.040949 0.000115 -0.000023 1.000000
-0.000000 0.000000 7.040995 -0.000065 -0.000098 1.000000
-0.237664 -0.309729 7.040949 -0.000065 -0.000098 1.000000
-0.195202 -0.338101 7.040949 -0.000065 -0.000098 1.000000
-0.000000 0.000000 7.040995 0.000098 0.000065 1.000000
0.338101 0.195203 7.040949 0.000098 0.000065 1.000000
0.309729 0.237664 7.040949 0.000098 0.000065 1.000000
-0.000000 0.000000 7.040995 0.000008 0.000117 1.000000
0.050958 0.387065 7.040949 0.000008 0.000117 1.000000
0.000000 0.390405 7.040949 0.000008 0.000117 1.000000
-0.000000 0.000000 7.040995 0.000105 0.000052 1.000000
0.360687 0.149402 7.040949 0.000105 0.000052 1.000000
0.338101 0.195203 7.040949 0.000105 0.000052 1.000000
-0.000000 0.000000 7.040995 0.000065 0.000098 1.000000
0.237664 0.309729 7.040949 0.000065 0.000098 1.000000
0.195203 0.338101 7.040949 0.000065 0.000098 1.000000
-0.000000 0.000000 7.040995 -0.000105 0.000052 1.000000
-0.338101 0.195203 7.040949 -0.000105 0.000052 1.000000
-0.360687 0.149402 7.040949 -0.000105 0.000052 1.000000
-0.000000 0.000000 7.040995 -0.000077 -0.000088 1.000000
-0.276058 -0.276058 7.040949 -0.000077 -0.000088 1.000000
-0.237664 -0.309729 7.040949 -0.000077 -0.000088 1.000000
-0.000000 0.000000 7.040995 -0.000117 0.000008 1.000000
-0.387065 0.050958 7.040949 -0.000117 0.000008 1.000000
-0.390405 0.000000 7.040949 -0.000117 0.000008 1.000000
-0.000000 0.000000 7.040995 -0.000052 -0.000105 1.000000
-0.195202 -0.338101 7.040949 -0.000052 -0.000105 1.000000
-0.149402 -0.360687 7.040949 -0.000052 -0.000105 1.000000
-0.000000 0.000000 7.040995 0.000115 0.000023 1.000000
0.387065 0.050958 7.040949 0.000115 0.000023 1.000000
0.377102 0.101044 7.040949 0.000115 0.000023 1.000000
-0.000000 0.000000 7.040995 0.000111 0.000038 1.000000
0.377102 0.101044 7.040949 0.000111 0.000038 1.000000
0.360687 0.149402 7.040949 0.000111 0.000038 1.000000
-0.000000 0.000000 7.040995 -0.000023 -0.000115 1.000000
-0.101044 -0.377102 7.040949 -0.000023 -0.000115 1.000000
-0.050958 -0.387065 7.040949 -0.000023 -0.000115 1.000000
-0.000000 0.000000 7.040995 0.000008 -0.000117 1.000000
0.000000 -0.390405 7.040949 0.000008 -0.000117 1.000000
0.050958 -0.387065 7.040949 0.000008 -0.000117 1.000000
-0.000000 0.000000 7.040995 -0.000111 -0.000038 1.000000
-0.377102 -0.101044 7.040949 -0.000111 -0.000038 1.000000
-0.360687 -0.149401 7.040949 -0.000111 -0.000038 1.000000
-0.000000 0.000000 7.040995 -0.000008 -0.000117 1.000000
-0.050958 -0.387065 7.040949 -0.000008 -0.000117 1.000000
0.000000 -0.390405 7.040949 -0.000008 -0.000117 1.000000
-0.000000 0.000000 7.040995 -0.000105 -0.000052 1.000000
-0.360687 -0.149401 7.040949 -0.000105 -0.000052 1.000000
-0.338101 -0.195202 7.040949 -0.000105 -0.000052 1.000000
-0.000000 0.000000 7.040995 -0.000098 -0.000065 1.000000
-0.338101 -0.195202 7.040949 -0.000098 -0.000065 1.000000
-0.309729 -0.237664 7.040949 -0.000098 -0.000065 1.000000
-0.000000 0.000000 7.040995 0.000023 0.000115 1.000000
0.101044 0.377102 7.040949 0.000023 0.000115 1.000000
0.050958 0.387065 7.040949 0.000023 0.000115 1.000000
-0.000000 0.000000 7.040995 0.000052 0.000105 1.000000
0.195203 0.338101 7.040949 0.000052 0.000105 1.000000
0.149402 0.360687 7.040949 0.000052 0.000105 1.000000
-0.000000 0.000000 7.040995 0.000111 -0.000038 1.000000
0.360687 -0.149402 7.040949 0.000111 -0.000038 1.000000
0.377102 -0.101044 7.040949 0.000111 -0.000038 1.000000
-0.000000 0.000000 7.040995 -0.000115 0.000023 1.000000
-0.377102 0.101044 7.040949 -0.000115 0.000023 1.000000
-0.387065 0.050958 7.040949 -0.000115 0.000023 1.000000
-0.000000 0.000000 7.040995 0.000038 -0.000111 1.000000
0.101044 -0.377102 7.040949 0.000038 -0.000111 1.000000
0.149402 -0.360687 7.040949 0.000038 -0.000111 1.000000
-0.000000 0.000000 7.040995 0.000098 -0.000065 1.000000
0.309729 -0.237664 7.040949 0.000098 -0.000065 1.000000
0.338101 -0.195203 7.040949 0.000098 -0.000065 1.000000
-0.000000 0.000000 7.040995 -0.000077 0.000088 1.000000
-0.237664 0.309729 7.040949 -0.000077 0.000088 1.000000
-0.276058 0.276058 7.040949 -0.000077 0.000088 1.000000
-0.000000 0.000000 7.040995 0.000117 -0.000008 1.000000
0.387065 -0.050958 7.040949 0.000117 -0.000008 1.000000
0.390405 0.000000 7.040949 0.000117 -0.000008 1.000000
-0.000000 0.000000 7.040995 -0.000038 -0.000111 1.000000
-0.149402 -0.360687 7.040949 -0.000038 -0.000111 1.000000
-0.101044 -0.377102 7.040949 -0.000038 -0.000111 1.000000
-0.000000 0.000000 7.040995 -0.000065 0.000098 1.000000
-0.195202 0.338101 7.040949 -0.000065 0.000098 1.000000
-0.237664 0.309729 7.040949 -0.000065 0.000098 1.000000
0.377656 -0.101192 -0.017786 0.000082 -0.000028 -1.000000
0.361216 -0.149621 -0.017786 0.000082 -0.000028 -1.000000
0.000000 0.000000 -0.017820 0.000082 -0.000028 -1.000000
0.195489 0.338597 -0.017786 0.000048 0.000072 -1.000000
0.238012 0.310183 -0.017786 0.000048 0.000072 -1.000000
0.000000 0.000000 -0.017820 0.000048 0.000072 -1.000000
0.338597 0.195489 -0.017786 0.000078 0.000038 -1.000000
0.361216 0.149621 -0.017786 0.000078 0.000038 -1.000000
0.000000 0.000000 -0.017820 0.000078 0.000038 -1.000000
-0.377655 -0.101192 -0.017786 -0.000085 -0.000017 -1.000000
-0.387633 -0.051033 -0.017786 -0.000085 -0.000017 -1.000000
0.000000 0.000000 -0.017820 -0.000085 -0.000017 -1.000000
-0.101193 -0.377655 -0.017786 -0.000028 -0.000082 -1.000000
-0.149621 -0.361216 -0.017786 -0.000028 -0.000082 -1.000000
0.000000 0.000000 -0.017820 -0.000028 -0.000082 -1.000000
-0.338597 0.195489 -0.017786 -0.000072 0.000048 -1.000000
-0.310183 0.238012 -0.017786 -0.000072 0.000048 -1.000000
0.000000 0.000000 -0.017820 -0.000072 0.000048 -1.000000
-0.276463 -0.276463 -0.017786 -0.000065 -0.000057 -1.000000
-0.310183 -0.238012 -0.017786 -0.000065 -0.000057 -1.000000
0.000000 0.000000 -0.017820 -0.000065 -0.000057 -1.000000
-0.149621 -0.361216 -0.017786 -0.000038 -0.000078 -1.000000
-0.195489 -0.338597 -0.017786 -0.000038 -0.000078 -1.000000
0.000000 0.000000 -0.017820 -0.000038 -0.000078 -1.000000
0.149621 -0.361216 -0.017786 0.000028 -0.000082 -1.000000
0.101192 -0.377656 -0.017786 0.000028 -0.000082 -1.000000
0.000000 0.000000 -0.017820 0.000028 -0.000082 -1.000000
-0.149621 0.361216 -0.017786 -0.000028 0.000082 -1.000000
-0.101192 0.377655 -0.017786 -0.000028 0.000082 -1.000000
0.000000 0.000000 -0.017820 -0.000028 0.000082 -1.000000
-0.195489 -0.338597 -0.017786 -0.000048 -0.000072 -1.000000
-0.238012 -0.310183 -0.017786 -0.000048 -0.000072 -1.000000
0.000000 0.000000 -0.017820 -0.000048 -0.000072 -1.000000
0.149621 0.361216 -0.017786 0.000038 0.000078 -1.000000
0.195489 0.338597 -0.017786 0.000038 0.000078 -1.000000
0.000000 0.000000 -0.017820 0.000038 0.000078 -1.000000
-0.238012 -0.310183 -0.017786 -0.000057 -0.000065 -1.000000
-0.276463 -0.276463 -0.017786 -0.000057 -0.000065 -1.000000
0.000000 0.000000 -0.017820 -0.000057 -0.000065 -1.000000
0.101192 -0.377656 -0.017786 0.000017 -0.000085 -1.000000
0.051033 -0.387633 -0.017786 0.000017 -0.000085 -1.000000
0.000000 0.000000 -0.017820 0.000017 -0.000085 -1.000000
-0.390978 0.000000 -0.017786 -0.000086 0.000006 -1.000000
-0.387633 0.051033 -0.017786 -0.000086 0.000006 -1.000000
0.000000 0.000000 -0.017820 -0.000086 0.000006 -1.000000
0.361216 -0.149621 -0.017786 0.000078 -0.000038 -1.000000
0.338597 -0.195489 -0.017786 0.000078 -0.000038 -1.000000
0.000000 0.000000 -0.017820 0.000078 -0.000038 -1.000000
-0.051033 0.387633 -0.017786 -0.000006 0.000086 -1.000000
0.000000 0.390978 -0.017786 -0.000006 0.000086 -1.000000
0.000000 0.000000 -0.017820 -0.000006 0.000086 -1.000000
0.361216 0.149621 -0.017786 0.000082 0.000028 -1.000000
0.377656 0.101192 -0.017786 0.000082 0.000028 -1.000000
0.000000 0.000000 -0.017820 0.000082 0.000028 -1.000000
0.310184 -0.238012 -0.017786 0.000065 -0.000057 -1.000000
0.276463 -0.276463 -0.017786 0.000065 -0.000057 -1.000000
0.000000 0.000000 -0.017820 0.000065 -0.000057 -1.000000
-0.310183 -0.238012 -0.017786 -0.000072 -0.000048 -1.000000
-0.338597 -0.195489 -0.017786 -0.000072 -0.000048 -1.000000
0.000000 0.000000 -0.017820 -0.000072 -0.000048 -1.000000
0.238012 0.310183 -0.017786 0.000057 0.000065 -1.000000
0.276463 0.276463 -0.017786 0.000057 0.000065 -1.000000
0.000000 0.000000 -0.017820 0.000057 0.000065 -1.000000
0.276463 -0.276463 -0.017786 0.000057 -0.000065 -1.000000
0.238012 -0.310184 -0.017786 0.000057 -0.000065 -1.000000
0.000000 0.000000 -0.017820 0.000057 -0.000065 -1.000000
0.387633 -0.051033 -0.017786 0.000086 -0.000006 -1.000000
0.000000 0.000000 -0.017820 0.000086 -0.000006 -1.000000
0.390978 0.000000 -0.017786 0.000086 -0.000006 -1.000000
0.051033 0.387633 -0.017786 0.000017 0.000085 -1.000000
0.101192 0.377655 -0.017786 0.000017 0.000085 -1.000000
0.000000 0.000000 -0.017820 0.000017 0.000085 -1.000000
-0.238012 0.310183 -0.017786 -0.000048 0.000072 -1.000000
-0.195489 0.338597 -0.017786 -0.000048 0.000072 -1.000000
0.000000 0.000000 -0.017820 -0.000048 0.000072 -1.000000
-0.387633 0.051033 -0.017786 -0.000085 0.000017 -1.000000
-0.377655 0.101192 -0.017786 -0.000085 0.000017 -1.000000
0.000000 0.000000 -0.017820 -0.000085 0.000017 -1.000000
-0.101192 0.377655 -0.017786 -0.000017 0.000085 -1.000000
-0.051033 0.387633 -0.017786 -0.000017 0.000085 -1.000000
0.000000 0.000000 -0.017820 -0.000017 0.000085 -1.000000
-0.195489 0.338597 -0.017786 -0.000038 0.000078 -1.000000
-0.149621 0.361216 -0.017786 -0.000038 0.000078 -1.000000
0.000000 0.000000 -0.017820 -0.000038 0.000078 -1.000000
-0.361216 -0.149621 -0.017786 -0.000082 -0.000028 -1.000000
-0.377655 -0.101192 -0.017786 -0.000082 -0.000028 -1.000000
0.000000 0.000000 -0.017820 -0.000082 -0.000028 -1.000000
0.051033 -0.387633 -0.017786 0.000006 -0.000086 -1.000000
0.000000 -0.390978 -0.017786 0.000006 -0.000086 -1.000000
0.000000 0.000000 -0.017820 0.000006 -0.000086 -1.000000
0.101192 0.377655 -0.017786 0.000028 0.000082 -1.000000
0.149621 0.361216 -0.017786 0.000028 0.000082 -1.000000
0.000000 0.000000 -0.017820 0.000028 0.000082 -1.000000
0.338597 -0.195489 -0.017786 0.000072 -0.000048 -1.000000
0.310184 -0.238012 -0.017786 0.000072 -0.000048 -1.000000
0.000000 0.000000 -0.017820 0.000072 -0.000048 -1.000000
0.238012 -0.310184 -0.017786 0.000048 -0.000072 -1.000000
0.195489 -0.338597 -0.017786 0.000048 -0.000072 -1.000000
0.000000 0.000000 -0.017820 0.000048 -0.000072 -1.000000
-0.387633 -0.051033 -0.017786 -0.000086 -0.000006 -1.000000
-0.390978 0.000000 -0.017786 -0.000086 -0.000006 -1.000000
0.000000 0.000000 -0.017820 -0.000086 -0.000006 -1.000000
0.310184 0.238012 -0.017786 0.000072 0.000048 -1.000000
0.338597 0.195489 -0.017786 0.000072 0.000048 -1.000000
0.000000 0.000000 -0.017820 0.000072 0.000048 -1.000000
0.387633 0.051033 -0.017786 0.000086 0.000006 -1.000000
0.390978 0.000000 -0.017786 0.000086 0.000006 -1.000000
0.000000 0.000000 -0.017820 0.000086 0.000006 -1.000000
0.377656 0.101192 -0.017786 0.000085 0.000017 -1.000000
0.387633 0.051033 -0.017786 0.000085 0.000017 -1.000000
0.000000 0.000000 -0.017820 0.000085 0.000017 -1.000000
0.276463 0.276463 -0.017786 0.000065 0.000057 -1.000000
0.310184 0.238012 -0.017786 0.000065 0.000057 -1.000000
0.000000 0.000000 -0.017820 0.000065 0.000057 -1.000000
-0.310183 0.238012 -0.017786 -0.000065 0.000057 -1.000000
-0.276463 0.276463 -0.017786 -0.000065 0.000057 -1.000000
0.000000 0.000000 -0.017820 -0.000065 0.000057 -1.000000
-0.361216 0.149621 -0.017786 -0.000078 0.000038 -1.000000
-0.338597 0.195489 -0.017786 -0.000078 0.000038 -1.000000
0.000000 0.000000 -0.017820 -0.000078 0.000038 -1.000000
-0.276463 0.276463 -0.017786 -0.000057 0.000065 -1.000000
-0.238012 0.310183 -0.017786 -0.000057 0.000065 -1.000000
0.000000 0.000000 -0.017820 -0.000057 0.000065 -1.000000
-0.338597 -0.195489 -0.017786 -0.000078 -0.000038 -1.000000
-0.361216 -0.149621 -0.017786 -0.000078 -0.000038 -1.000000
0.000000 0.000000 -0.017820 -0.000078 -0.000038 -1.000000
-0.377655 0.101192 -0.017786 -0.000082 0.000028 -1.000000
-0.361216 0.149621 -0.017786 -0.000082 0.000028 -1.000000
0.000000 0.000000 -0.017820 -0.000082 0.000028 -1.000000
0.387633 -0.051033 -0.017786 0.000085 -0.000017 -1.000000
0.377656 -0.101192 -0.017786 0.000085 -0.000017 -1.000000
0.000000 0.000000 -0.017820 0.000085 -0.000017 -1.000000
0.000000 0.390978 -0.017786 0.000006 0.000086 -1.000000
0.051033 0.387633 -0.017786 0.000006 0.000086 -1.000000
0.000000 0.000000 -0.017820 0.000006 0.000086 -1.000000
0.000000 -0.390978 -0.017786 -0.000006 -0.000086 -1.000000
-0.051033 -0.387633 -0.017786 -0.000006 -0.000086 -1.000000
0.000000 0.000000 -0.017820 -0.000006 -0.000086 -1.000000
-0.051033 -0.387633 -0.017786 -0.000017 -0.000085 -1.000000
-0.101193 -0.377655 -0.017786 -0.000017 -0.000085 -1.000000
0.000000 0.000000 -0.017820 -0.000017 -0.000085 -1.000000
0.195489 -0.338597 -0.017786 0.000038 -0.000078 -1.000000
0.149621 -0.361216 -0.017786 0.000038 -0.000078 -1.000000
0.000000 0.000000 -0.017820 0.000038 -0.000078 -1.000000
4 0 1 2 3
4 4 5 6 7
4 8 9 10 11
4 12 13 14 15
4 16 17 18 19
4 20 21 22 23
4 24 25 26 27
4 28 29 30 31
4 32 33 34 35
4 36 37 38 39
4 40 41 42 43
4 44 45 46 47
4 48 49 50 51
4 52 53 54 55
4 56 57 58 59
4 60 61 62 63
4 64 65 66 67
4 68 69 70 71
4 72 73 74 75
4 76 77 78 79
4 80 81 82 83
4 84 85 86 87
4 88 89 90 91
4 92 93 94 95
4 96 97 98 99
4 100 101 102 103
4 104 105 106 107
4 108 109 110 111
4 112 113 114 115
4 116 117 118 119
4 120 121 122 123
4 124 125 126 127
4 128 129 130 131
4 132 133 134 135
4 136 137 138 139
4 140 141 142 143
4 144 145 146 147
4 148 149 150 151
4 152 153 154 155
4 156 157 158 159
4 160 161 162 163
4 164 165 166 167
4 168 169 170 171
4 172 173 174 175
4 176 177 178 179
4 180 181 182 183
4 184 185 186 187
4 188 189 190 191
3 192 193 194
3 195 196 197
3 198 199 200
3 201 202 203
3 204 205 206
3 207 208 209
3 210 211 212
3 213 214 215
3 216 217 218
3 219 220 221
3 222 223 224
3 225 226 227
3 228 229 230
3 231 232 233
3 234 235 236
3 237 238 239
3 240 241 242
3 243 244 245
3 246 247 248
3 249 250 251
3 252 253 254
3 255 256 257
3 258 259 260
3 261 262 263
3 264 265 266
3 267 268 269
3 270 271 272
3 273 274 275
3 276 277 278
3 279 280 281
3 282 283 284
3 285 286 287
3 288 289 290
3 291 292 293
3 294 295 296
3 297 298 299
3 300 301 302
3 303 304 305
3 306 307 308
3 309 310 311
3 312 313 314
3 315 316 317
3 318 319 320
3 321 322 323
3 324 325 326
3 327 328 329
3 330 331 332
3 333 334 335
3 336 337 338
3 339 340 341
3 342 343 344
3 345 346 347
3 348 349 350
3 351 352 353
3 354 355 356
3 357 358 359
3 360 361 362
3 363 364 365
3 366 367 368
3 369 370 371
3 372 373 374
3 375 376 377
3 378 379 380
3 381 382 383
3 384 385 386
3 387 388 389
3 390 391 392
3 393 394 395
3 396 397 398
3 399 400 401
3 402 403 404
3 405 406 407
3 408 409 410
3 411 412 413
3 414 415 416
3 417 418 419
3 420 421 422
3 423 424 425
3 426 427 428
3 429 430 431
3 432 433 434
3 435 436 437
3 438 439 440
3 441 442 443
3 444 445 446
3 447 448 449
3 450 451 452
3 453 454 455
3 456 457 458
3 459 460 461
3 462 463 464
3 465 466 467
3 468 469 470
3 471 472 473
3 474 475 476
3 477 478 479
